<?xml version="1.0" standalone="no"?>
<!DOCTYPE svg PUBLIC "-//W3C//DTD SVG 20010904//EN"
 "http://www.w3.org/TR/2001/REC-SVG-20010904/DTD/svg10.dtd">
<svg version="1.0" xmlns="http://www.w3.org/2000/svg"
 width="950.000000pt" height="950.000000pt" viewBox="0 0 950.000000 950.000000"
 preserveAspectRatio="xMidYMid meet">
<metadata>
Created by potrace 1.14, written by Peter Selinger 2001-2017
</metadata>
<g transform="translate(0.000000,950.000000) scale(0.100000,-0.100000)"
fill="#000000" stroke="none">
<path d="M3860 8728 c-230 -19 -405 -51 -580 -105 -104 -32 -282 -98 -328
-122 -9 -5 -51 -26 -92 -47 -62 -30 -143 -77 -279 -159 -97 -59 -331 -255
-437 -367 -273 -288 -459 -605 -563 -957 -8 -26 -9 -27 -91 -63 -205 -89 -439
-254 -614 -432 -280 -286 -443 -595 -523 -991 -25 -126 -25 -509 0 -642 34
-182 91 -354 176 -525 l59 -120 -75 -71 c-173 -164 -334 -423 -407 -654 -55
-177 -69 -273 -70 -483 0 -164 3 -211 22 -300 81 -381 276 -716 560 -964 70
-60 216 -164 252 -178 9 -4 20 -332 20 -590 l0 -188 3430 0 3430 0 0 83 0 82
70 43 c288 178 613 495 801 782 106 161 222 379 264 495 10 28 22 55 25 60 8
10 58 170 84 265 70 259 104 608 86 878 -19 268 -58 488 -114 631 l-26 64 79
83 c137 144 213 248 281 384 95 189 141 351 161 571 25 271 -25 565 -137 804
-44 95 -110 211 -141 250 -13 17 -27 35 -31 40 -105 144 -221 261 -363 368
-163 123 -402 237 -614 292 -335 88 -764 69 -1065 -45 -30 -12 -71 -27 -90
-34 -94 -35 -215 -101 -304 -165 -54 -40 -100 -71 -101 -69 -2 2 -12 54 -24
115 -140 734 -667 1392 -1389 1735 -210 100 -509 190 -740 224 -128 19 -483
32 -602 22z"/>
</g>
</svg>
